<svg xmlns="http://www.w3.org/2000/svg" viewBox="0 0 31 31"><path d="M1 1h7v7h-7zM13 1h1v1h1v1h-2v1h-1v1h-1v1h2v-2h2v2h-1v2h-1v-1h-1v1h-1v-1h-1v-1h-1v-1h1v-1h1v-2h2zM15 1h1v1h-1zM18 1h4v1h-1v1h-1v1h1v-1h1v2h-1v2h-1v-1h-1v-4h-1zM23 1h7v7h-7zM2 2v5h5v-5zM9 2h1v1h-1zM24 2v5h5v-5zM3 3h3v3h-3zM16 3h1v1h-1zM25 3h3v3h-3zM17 4h1v4h-1v-1h-1v1h-1v-2h2zM9 7h1v1h-1zM19 7h1v1h1v1h-2v1h-1v1h1v1h2v1h-2v1h-1v-1h-1v-1h-1v1h1v2h-2v-2h-2v2h2v1h-1v1h-1v-1h-1v-3h-2v-1h1v-1h3v1h1v-1h1v-1h1v-1h1v-1h1zM21 7h1v1h-1zM10 8h1v2h-1zM12 8h1v1h-1zM16 8h1v1h-1zM1 9h1v1h-1zM3 9h1v1h1v-1h1v1h1v1h1v1h-1v1h1v1h-3v-1h1v-2h-4v-1h1zM7 9h1v1h-1zM13 9h1v1h-1zM25 9h1v1h-1zM28 9h1v1h-1zM8 10h2v1h-2zM14 10h1v1h-1zM21 10h4v1h-2v1h1v3h-3v-2h1v-2h-1zM26 10h1v1h-1zM29 10h1v2h-1v1h1v3h-1v1h1v3h-1v1h-1v-2h1v-1h-1v-3h1v-1h-1v-2h-1v-1h2zM1 11h1v1h-1zM25 11h1v2h-1zM2 12h3v1h-3zM8 12h1v1h-1zM1 13h1v1h-1zM26 13h1v5h1v1h-2v-2h-1v-2h1zM3 14h1v1h-1zM8 14h1v1h-1zM10 14h1v1h-1zM1 15h2v1h-1v1h-1zM5 15h3v1h-1v1h-1v-1h-1zM9 15h1v1h1v2h1v1h-1v1h-1v3h-1v-3h-2v-1h3v-2h-1v1h-2v-1h1v-1h1zM3 16h2v1h-1v1h-2v-1h1zM16 16h1v1h-1zM18 16h5v1h1v3h-2v-1h-1v-1h1v-1h-2v1h-2v1h1v1h1v1h-1v1h-2v1h-2v-2h-1v-1h1v-1h1v-1h1v-1h1zM12 17h1v1h-1zM4 18h1v2h1v1h-1v1h-2v-1h-1v-1h2zM6 18h1v1h-1zM14 18h1v1h-1zM1 19h1v1h-1zM12 19h2v1h-2zM16 20v1h1v-1zM24 20h1v1h1v2h1v2h-1v2h1v1h-3v-1h1v-1h-3v1h-1v-3h-2v-1h1v-2h4zM26 20h1v1h-1zM1 21h1v1h-1zM7 21h1v1h-1zM11 21h1v1h-1zM22 22v3h3v-3zM27 22h3v3h-1v-1h-1v-1h-1zM1 23h7v7h-7zM10 23h2v1h1v-1h2v1h-1v2h1v1h-1v1h-1v-1h-1v-1h1v-1h-2v1h-2v-1h1zM23 23h1v1h-1zM2 24v5h5v-5zM16 24h3v3h-2v-2h-1zM3 25h3v3h-3zM28 25h1v1h-1zM27 26h1v1h-1zM9 27h2v1h-2zM15 27h1v1h-1zM20 27h1v1h1v-1h1v2h-1v1h-2v-1h-1v1h-2v-1h-1v-1h4zM29 27h1v1h-1zM28 28h1v1h1v1h-2zM9 29h2v1h-2zM13 29h1v1h-1zM15 29h1v1h-1zM24 29h3v1h-3z"/></svg>