<svg xmlns="http://www.w3.org/2000/svg" viewBox="0 0 31 31"><path d="M1 1h7v7h-7zM15 1h1v1h-1zM18 1h3v2h-1v-1h-1v1h-1zM23 1h7v7h-7zM2 2v5h5v-5zM9 2h3v1h-1v1h-1v-1h-1zM14 2h1v1h-1zM24 2v5h5v-5zM3 3h3v3h-3zM12 3h1v1h-1zM16 3h1v1h-1zM19 3h1v1h-1zM25 3h3v3h-3zM11 4h1v2h1v-2h2v2h-1v3h-1v-2h-1v2h-1zM17 4h1v1h2v-1h2v1h-1v2h-1v1h-1v-2h-1v2h-1v-1h-1v1h-1v-2h2zM9 5h1v1h-1zM9 7h1v1h-1zM21 7h1v1h-1zM16 8h1v1h-1zM18 8h1v3h1v1h1v1h-2v1h-1v-1h-1v-1h-1v1h1v2h-2v-2h-1v-1h1v-1h1v-1h1v-1h1zM1 9h1v1h1v-1h1v2h2v-1h1v1h2v1h-2v1h2v1h1v1h-1v1h-2v1h-1v-1h-1v-1h1v-2h-1v-1h-1v1h-1v3h-2v-2h1v-2h1v-1h-1v1h-1zM5 9h1v1h-1zM7 9h1v1h-1zM12 9h1v2h1v1h-1v2h-1v1h-1v-1h-1v-1h-1v-1h1v-1h1v1h1zM25 9h1v1h-1zM28 9h1v1h-1zM9 10h1v1h-1zM14 10h1v1h-1zM21 10h3v1h-3zM26 10h1v1h-1zM29 10h1v2h-1v1h1v3h-1v1h1v3h-1v1h-1v-2h1v-1h-1v-3h1v-1h-1v-2h-1v-1h2zM22 12h1v1h1v1h1v2h-2v-1h-2v-2h1zM25 12h1v1h-1zM26 13h1v5h1v1h-2zM7 14v1h1v-1zM13 14h1v1h1v1h-1v2h1v1h-1v1h-1v1h1v1h-2v-4h1v-2h-1v-1h1zM18 15h1v1h3v1h3v1h-1v1h1v1h-1v1h2v2h1v2h-1v2h1v1h-1v1h1v1h-3v-1h1v-1h-1v-1h1v-1h-4v-2h-1v-1h1v-2h2v-2h-1v1h-1v-3h-2v1h-1v2h2v2h-1v-1h-2v-1h-1v1h1v2h-2v-2h-1v-1h1v-1h1v-1h1v-1h1zM11 16h1v2h-2v-1h1zM16 16h1v1h-1zM4 17h2v2h2v1h-2v1h3v-1h1v2h2v1h3v1h-1v1h-1v-1h-1v3h-2v-1h-1v-1h2v-2h-2v-1h-6v-1h2v-2h-1v1h-1v-2h1zM7 17h1v1h-1zM1 19h1v1h-1zM2 20h1v1h-1zM26 20h1v1h-1zM1 21h1v1h-1zM22 22v3h3v-3zM27 22h3v3h-1v-1h-1v-1h-1zM1 23h7v7h-7zM18 23h1v1h-1zM23 23h1v1h-1zM2 24v5h5v-5zM16 24h1v1h-1zM3 25h3v3h-3zM17 25h1v1h1v1h-1v1h1v-1h3v1h2v1h-1v1h-4v-1h-2v-1h-2v1h-1v-1h-2v-1h1v-1h2v1h1v-1h1zM27 26h1v1h-1zM9 27h1v1h-1zM29 27h1v1h-1zM10 28h2v2h-3v-1h1zM28 28h1v1h1v1h-2zM15 29h2v1h-2z"/></svg>